<?xml version="1.0" encoding="utf-8"?>
<!-- Generator: Adobe Illustrator 19.0.0, SVG Export Plug-In . SVG Version: 6.00 Build 0)  -->
<svg version="1.1" id="Layer_1" xmlns="http://www.w3.org/2000/svg" xmlns:xlink="http://www.w3.org/1999/xlink" x="0px" y="0px"
	 viewBox="0 0 75 50" style="enable-background:new 0 0 75 50;" xml:space="preserve">
<style type="text/css">
	.st0{fill:#ADB4C2;}
	.st1{fill:none;stroke:#ADB4C2;stroke-miterlimit:10;}
</style>
<g id="XMLID_1_">
	<path id="XMLID_17_" class="st0" d="M63,26c1.7,0,3,1.3,3,3v11H8.8V29c0-1.7,1.3-3,3-3H63 M63,25H11.8c-2.2,0-4,1.8-4,4v12H67V29
		C67,26.8,65.2,25,63,25L63,25z"/>
</g>
<g id="XMLID_3_">
	<path id="XMLID_32_" class="st0" d="M52,10c1.7,0,3,1.3,3,3v5v0.4l0.2,0.3l5.5,6.3H14.2l5.5-6.3l0.2-0.3V18v-5c0-1.7,1.3-3,3-3H52
		 M52,9H23c-2.2,0-4,1.8-4,4v5l-7,8h51l-7-8v-5C56,10.8,54.2,9,52,9L52,9z"/>
</g>
<g id="XMLID_2_">
	<path id="XMLID_22_" class="st0" d="M34,15c0.6,0,1,0.4,1,1v4c0,0.6-0.4,1-1,1h-8c-0.6,0-1-0.4-1-1v-4c0-0.6,0.4-1,1-1H34 M34,14
		h-8c-1.1,0-2,0.9-2,2v4c0,1.1,0.9,2,2,2h8c1.1,0,2-0.9,2-2v-4C36,14.9,35.1,14,34,14L34,14z"/>
</g>
<g id="XMLID_7_">
	<path id="XMLID_9_" class="st0" d="M49,15c0.6,0,1,0.4,1,1v4c0,0.6-0.4,1-1,1h-8c-0.6,0-1-0.4-1-1v-4c0-0.6,0.4-1,1-1H49 M49,14h-8
		c-1.1,0-2,0.9-2,2v4c0,1.1,0.9,2,2,2h8c1.1,0,2-0.9,2-2v-4C51,14.9,50.1,14,49,14L49,14z"/>
</g>
<line id="XMLID_14_" class="st1" x1="19" y1="18.5" x2="24" y2="18.5"/>
<line id="XMLID_16_" class="st1" x1="36" y1="18.5" x2="39" y2="18.5"/>
<line id="XMLID_20_" class="st1" x1="51" y1="18.5" x2="56" y2="18.5"/>
</svg>
