<?xml version="1.0" encoding="utf-8"?>
<!-- Generator: Adobe Illustrator 19.0.0, SVG Export Plug-In . SVG Version: 6.00 Build 0)  -->
<svg version="1.1" id="Layer_1" xmlns="http://www.w3.org/2000/svg" xmlns:xlink="http://www.w3.org/1999/xlink" x="0px" y="0px"
	 viewBox="0 0 75 50" style="enable-background:new 0 0 75 50;" xml:space="preserve">
<style type="text/css">
	.st0{fill:none;stroke:#ADB4C2;stroke-miterlimit:10;}
</style>
<polyline id="XMLID_2_" class="st0" points="0,44.5 7,43 14,45.3 24,43.5 32,45.5 39,45.3 53,43.1 59,45.1 66,43 75,45 "/>
<line id="XMLID_3_" class="st0" x1="17.5" y1="45" x2="17.5" y2="36"/>
<circle id="XMLID_1_" class="st0" cx="17.5" cy="28.5" r="2.5"/>
<path id="XMLID_7_" class="st0" d="M16,26c-0.9-2.8,2-6,2-6s1.8,3.1,1,6"/>
<path id="XMLID_9_" class="st0" d="M18.9,26c2-2.2,6.2-1.3,6.2-1.3s-1.8,3-4.7,3.9"/>
<path id="XMLID_10_" class="st0" d="M20.4,28.5c2.9,0.6,4.2,4.7,4.2,4.7s-3.5,0-5.7-2.1"/>
<path id="XMLID_11_" class="st0" d="M19,31c0.9,2.8-2,6-2,6s-1.8-3.1-1-6"/>
<path id="XMLID_12_" class="st0" d="M16.1,31c-2,2.2-6.2,1.3-6.2,1.3s1.8-3,4.7-3.9"/>
<path id="XMLID_13_" class="st0" d="M14.6,28.5c-2.9-0.6-4.2-4.7-4.2-4.7s3.5,0,5.7,2.1"/>
<path id="XMLID_14_" class="st0" d="M34.7,45.5c-5.2,0.1-4.4-6.5,0.5-6.7c-3.3-2.9-1.8-8.7,3.6-7.8c0.5-5.5,7.3-5.5,8.8-2.1
	c1.5-2.4,7.1-5.1,9.4,0.7c4-3.1,8.8,1.8,6.4,5.1c4.5,0,6.4,4.9,2.8,8.3"/>
</svg>
