<?xml version="1.0" encoding="utf-8"?>
<!-- Generator: Adobe Illustrator 19.0.0, SVG Export Plug-In . SVG Version: 6.00 Build 0)  -->
<svg version="1.1" id="Layer_1" xmlns="http://www.w3.org/2000/svg" xmlns:xlink="http://www.w3.org/1999/xlink" x="0px" y="0px"
	 viewBox="0 0 75 50" style="enable-background:new 0 0 75 50;" xml:space="preserve">
<style type="text/css">
	.st0{fill:none;stroke:#ADB4C2;stroke-miterlimit:10;}
	.st1{fill:#ADB4C2;}
</style>
<polygon id="XMLID_1_" class="st0" points="74.5,-0.1 65.5,2.5 65.5,42.6 74.5,50 "/>
<g id="XMLID_2_">
	<path id="XMLID_18_" class="st1" d="M72,5v18l-4-0.8V5.9L72,5 M73,3.8l-6,1.3V23l6,1.2V3.8L73,3.8z"/>
</g>
<g id="XMLID_7_">
	<path id="XMLID_23_" class="st1" d="M68,26.3l4,1v15.9l-4-2.7V26 M67,25v16l6,4V26.5L67,25L67,25z"/>
</g>
<line id="XMLID_8_" class="st0" x1="66" y1="42.5" x2="1" y2="42.5"/>
<line id="XMLID_9_" class="st0" x1="66" y1="2.5" x2="1" y2="2.5"/>
<line id="XMLID_10_" class="st0" x1="50.5" y1="42.5" x2="53.9" y2="50"/>
<line id="XMLID_11_" class="st0" x1="25" y1="44.5" x2="36" y2="44.5"/>
<line id="XMLID_22_" class="st0" x1="28" y1="16.5" x2="33" y2="16.5"/>
<line id="XMLID_12_" class="st0" x1="30.5" y1="45" x2="30.5" y2="17"/>
<path id="XMLID_3_" class="st0" d="M25.7,11.9l2.5,4c0.6,0.9,0,2-0.9,2.3"/>
<path id="XMLID_13_" class="st0" d="M35.5,11.9l-2.5,4c-0.7,1.1,0.2,2.5,1.5,2.3l1-0.1"/>
<g id="XMLID_17_">
	<polygon id="XMLID_15_" class="st0" points="27.5,17.5 26,17.5 22.5,22.1 22.5,30.5 24.5,30.5 24.5,24 24.5,34.5 27.5,34.5 	"/>
	<line id="XMLID_21_" class="st0" x1="25.5" y1="21" x2="25.5" y2="22"/>
</g>
</svg>
