<?xml version="1.0" encoding="utf-8"?>
<!-- Generator: Adobe Illustrator 19.0.0, SVG Export Plug-In . SVG Version: 6.00 Build 0)  -->
<svg version="1.1" id="Layer_1" xmlns="http://www.w3.org/2000/svg" xmlns:xlink="http://www.w3.org/1999/xlink" x="0px" y="0px"
	 viewBox="0 0 75 50" style="enable-background:new 0 0 75 50;" xml:space="preserve">
<style type="text/css">
	.st0{fill:#ADB4C2;}
	.st1{fill:none;stroke:#ADB4C2;stroke-linejoin:round;stroke-miterlimit:10;}
	.st2{fill:none;stroke:#ADB4C2;stroke-miterlimit:10;}
</style>
<g id="XMLID_1_">
	<path id="XMLID_27_" class="st0" d="M26.1,29v20h-20V29H26.1 M27.1,28h-22v22h22V28L27.1,28z"/>
</g>
<g id="XMLID_3_">
	<path id="XMLID_23_" class="st0" d="M47.1,29v20h-20V29H47.1 M48.1,28h-22v22h22V28L48.1,28z"/>
</g>
<g id="XMLID_11_">
	<path id="XMLID_19_" class="st0" d="M68.1,1v48h-20V1H68.1 M69.1,0h-22v50h22V0L69.1,0z"/>
</g>
<g id="XMLID_2_">
	<path id="XMLID_42_" class="st0" d="M23,34v10H9V34H23 M23,33H9c-0.6,0-1,0.4-1,1v10c0,0.6,0.4,1,1,1h14c0.6,0,1-0.4,1-1V34
		C24,33.4,23.6,33,23,33L23,33z"/>
</g>
<line id="XMLID_8_" class="st1" x1="7" y1="31.5" x2="25" y2="31.5"/>
<line id="XMLID_7_" class="st1" x1="10" y1="40.5" x2="22" y2="40.5"/>
<line id="XMLID_10_" class="st1" x1="8" y1="26.5" x2="14" y2="26.5"/>
<line id="XMLID_12_" class="st1" x1="18" y1="26.5" x2="24" y2="26.5"/>
<g id="XMLID_9_">
	<path id="XMLID_43_" class="st0" d="M19,1v12h-6V1H19 M20,0h-8v14h8V0L20,0z"/>
</g>
<g id="XMLID_14_">
	<path id="XMLID_46_" class="st0" d="M19.7,14l4.2,3H8.1l4.2-3H19.7 M20,13h-8l-7,5h22L20,13L20,13z"/>
</g>
<line id="XMLID_18_" class="st2" x1="29" y1="33.5" x2="34" y2="33.5"/>
<line id="XMLID_26_" class="st2" x1="50.5" y1="22" x2="50.5" y2="27"/>
</svg>
