<?xml version="1.0" encoding="utf-8"?>
<!-- Generator: Adobe Illustrator 19.0.0, SVG Export Plug-In . SVG Version: 6.00 Build 0)  -->
<svg version="1.1" xmlns="http://www.w3.org/2000/svg" xmlns:xlink="http://www.w3.org/1999/xlink" x="0px" y="0px"
	 viewBox="0 0 10 10" style="enable-background:new 0 0 10 10;" xml:space="preserve">
<style type="text/css">
	.st0{fill:#FFFFFF;stroke:#EDEC3E;stroke-width:2;stroke-miterlimit:10;}
	.st1{fill:#FFFFFF;stroke:#7CEA38;stroke-width:2;stroke-miterlimit:10;}
	.st2{fill:#FFFFFF;stroke:#4DEBAA;stroke-width:2;stroke-miterlimit:10;}
	.st3{fill:#FFFFFF;stroke:#43CBDF;stroke-width:2;stroke-miterlimit:10;}
	.st4{fill:#FFFFFF;stroke:#6B6FF0;stroke-width:2;stroke-miterlimit:10;}
	.st5{fill:#FFFFFF;stroke:#C42BDD;stroke-width:2;stroke-miterlimit:10;}
	.st6{fill:#FFFFFF;stroke:#E428A5;stroke-width:2;stroke-miterlimit:10;}
	.st7{fill:#FFFFFF;stroke:#E8A731;stroke-width:2;stroke-miterlimit:10;}
	.st8{opacity:0.5;}
	.st9{fill:#FFFFFF;}
	.st10{opacity:0.7;}
</style>
<g id="Layer_1">
	<g id="XMLID_5_">
		<g id="XMLID_4_">
			<path id="XMLID_1_" class="st0" d="M6.5,1.4c-0.9-0.4-2-0.4-3,0"/>
		</g>
		<g id="XMLID_6_">
			<path id="XMLID_7_" class="st1" d="M8.6,3.5C8.2,2.6,7.5,1.8,6.5,1.4"/>
		</g>
		<g id="XMLID_8_">
			<path id="XMLID_9_" class="st2" d="M8.6,6.5c0.4-0.9,0.4-2,0-3"/>
		</g>
		<g id="XMLID_10_">
			<path id="XMLID_11_" class="st3" d="M6.5,8.6c0.9-0.4,1.7-1.1,2.1-2.1"/>
		</g>
		<g id="XMLID_12_">
			<path id="XMLID_13_" class="st4" d="M3.5,8.6c0.9,0.4,2,0.4,3,0"/>
		</g>
		<g id="XMLID_14_">
			<path id="XMLID_15_" class="st5" d="M1.4,6.5c0.4,0.9,1.1,1.7,2.1,2.1"/>
		</g>
		<g id="XMLID_16_">
			<path id="XMLID_17_" class="st6" d="M1.4,3.5c-0.4,0.9-0.4,2,0,3"/>
		</g>
		<g id="XMLID_18_">
			<path id="XMLID_19_" class="st7" d="M3.5,1.4C2.6,1.8,1.8,2.5,1.4,3.5"/>
		</g>
	</g>
</g>
<g id="Layer_2">
	<g id="XMLID_20_" class="st8">
		<path id="XMLID_35_" class="st9" d="M5,2.1c1.6,0,2.9,1.3,2.9,2.9S6.6,7.9,5,7.9S2.1,6.6,2.1,5S3.4,2.1,5,2.1 M5,0.7
			C2.7,0.7,0.7,2.7,0.7,5S2.7,9.3,5,9.3S9.3,7.3,9.3,5S7.3,0.7,5,0.7L5,0.7z"/>
	</g>
</g>
<g id="Layer_2_copy">
	<g id="XMLID_21_" class="st10">
		<path id="XMLID_38_" class="st9" d="M5,2.1c1.6,0,2.9,1.3,2.9,2.9S6.6,7.9,5,7.9S2.1,6.6,2.1,5S3.4,2.1,5,2.1 M5,1.5
			C3.1,1.5,1.5,3.1,1.5,5S3.1,8.5,5,8.5S8.5,6.9,8.5,5S6.9,1.5,5,1.5L5,1.5z"/>
	</g>
</g>
</svg>
