<?xml version="1.0" encoding="utf-8"?>
<!-- Generator: Adobe Illustrator 19.0.0, SVG Export Plug-In . SVG Version: 6.00 Build 0)  -->
<svg version="1.1" id="Layer_1" xmlns="http://www.w3.org/2000/svg" xmlns:xlink="http://www.w3.org/1999/xlink" x="0px" y="0px"
	 viewBox="0 0 75 50" style="enable-background:new 0 0 75 50;" xml:space="preserve">
<style type="text/css">
	.st0{fill:#ADB4C2;}
	.st1{fill:none;stroke:#ADB4C2;stroke-miterlimit:10;}
</style>
<g id="XMLID_1_">
	<path id="XMLID_33_" class="st0" d="M72,18c1.1,0,2,0.9,2,2v13c0,2.2-1.8,4-4,4H5c-2.2,0-4-1.8-4-4V20c0-1.1,0.9-2,2-2h4
		c1.1,0,2,0.9,2,2v8v1h1h55h1l0-1l0-8c0-0.5,0.2-1,0.6-1.4C67,18.2,67.5,18,68,18H72 M72,17h-4c-1.7,0-3,1.3-3,3l0,8H10v-8
		c0-1.7-1.3-3-3-3H3c-1.7,0-3,1.3-3,3v13c0,2.8,2.2,5,5,5h65c2.8,0,5-2.2,5-5V20C75,18.3,73.7,17,72,17L72,17z"/>
</g>
<g id="XMLID_2_">
	<path id="XMLID_29_" class="st0" d="M61,9c2.2,0,4,1.8,4,4v15H10V13c0-2.2,1.8-4,4-4H61 M61,8H14c-2.8,0-5,2.2-5,5v16h57V13
		C66,10.2,63.8,8,61,8L61,8z"/>
</g>
<g id="XMLID_7_">
	<path id="XMLID_25_" class="st0" d="M13,38v3h-3v-3H13 M14,37H9v5h5V37L14,37z"/>
</g>
<g id="XMLID_8_">
	<path id="XMLID_21_" class="st0" d="M65,38v3h-3v-3H65 M66,37h-5v5h5V37L66,37z"/>
</g>
<line id="XMLID_9_" class="st1" x1="37.5" y1="29" x2="37.5" y2="8"/>
</svg>
